<svg width="144" height="35" viewBox="0 0 144 35" fill="none" xmlns="http://www.w3.org/2000/svg">
<path d="M40.152 10.328V9.68H46.968C48.92 9.68 50.416 10.312 51.456 11.576C52.496 12.84 53.016 14.624 53.016 16.928V18.728C53.016 21.048 52.496 22.84 51.456 24.104C50.416 25.368 48.92 26 46.968 26H40.152V25.376L41.472 25.232C41.728 25.2 41.88 25.136 41.928 25.04C41.976 24.944 42 24.616 42 24.056V11.624C42 11.064 41.976 10.736 41.928 10.64C41.88 10.544 41.728 10.48 41.472 10.448L40.152 10.328ZM46.92 10.448H44.088V25.232H46.92C47.784 25.232 48.496 25.072 49.056 24.752C49.616 24.432 50.032 23.888 50.304 23.12C50.592 22.336 50.736 21.272 50.736 19.928V15.728C50.736 14.4 50.592 13.352 50.304 12.584C50.032 11.816 49.616 11.272 49.056 10.952C48.496 10.616 47.784 10.448 46.92 10.448ZM65.478 26.168C64.23 26.168 63.494 25.592 63.27 24.44C62.71 25.08 62.094 25.544 61.422 25.832C60.75 26.104 60.086 26.24 59.43 26.24C58.31 26.24 57.486 25.928 56.958 25.304C56.43 24.68 56.166 23.928 56.166 23.048C56.166 22.104 56.486 21.36 57.126 20.816C57.782 20.256 58.91 19.976 60.51 19.976H63.222V18.032C63.222 16.752 62.998 15.872 62.55 15.392C62.118 14.896 61.526 14.648 60.774 14.648C60.294 14.648 59.862 14.744 59.478 14.936C59.094 15.128 58.814 15.48 58.638 15.992C58.478 16.488 58.462 17.216 58.59 18.176L56.694 17.888C56.614 17.136 56.71 16.464 56.982 15.872C57.27 15.264 57.734 14.784 58.374 14.432C59.03 14.064 59.846 13.88 60.822 13.88C61.99 13.88 62.886 14.08 63.51 14.48C64.134 14.864 64.566 15.368 64.806 15.992C65.062 16.616 65.19 17.296 65.19 18.032V23.432C65.19 24.248 65.278 24.76 65.454 24.968C65.646 25.176 65.854 25.28 66.078 25.28C66.222 25.28 66.374 25.248 66.534 25.184C66.694 25.104 66.87 24.984 67.062 24.824L67.494 25.424C67.254 25.632 66.966 25.808 66.63 25.952C66.31 26.096 65.926 26.168 65.478 26.168ZM60.102 25.232C60.55 25.232 61.03 25.112 61.542 24.872C62.07 24.616 62.63 24.112 63.222 23.36V20.744H60.774C59.878 20.744 59.222 20.928 58.806 21.296C58.406 21.648 58.206 22.2 58.206 22.952C58.206 23.672 58.358 24.232 58.662 24.632C58.982 25.032 59.462 25.232 60.102 25.232ZM73.6149 21.152L72.1509 20.792C70.1509 20.28 69.1509 19.128 69.1509 17.336C69.1509 16.744 69.2869 16.184 69.5589 15.656C69.8309 15.128 70.2629 14.704 70.8549 14.384C71.4629 14.048 72.2389 13.88 73.1829 13.88C74.2389 13.88 75.0869 14.056 75.7269 14.408C76.3669 14.76 76.8149 15.216 77.0709 15.776C77.3269 16.336 77.4069 16.944 77.3109 17.6L75.4389 17.936C75.6309 16.896 75.5189 16.088 75.1029 15.512C74.7029 14.936 74.0389 14.648 73.1109 14.648C72.3909 14.648 71.8149 14.832 71.3829 15.2C70.9509 15.552 70.7349 16.072 70.7349 16.76C70.7349 17.272 70.8949 17.728 71.2149 18.128C71.5349 18.512 72.0709 18.8 72.8229 18.992L74.3349 19.352C75.3909 19.608 76.2069 20.016 76.7829 20.576C77.3749 21.136 77.6709 21.872 77.6709 22.784C77.6709 23.808 77.2949 24.64 76.5429 25.28C75.8069 25.92 74.7509 26.24 73.3749 26.24C72.7189 26.24 72.0789 26.144 71.4549 25.952C70.8469 25.744 70.3109 25.424 69.8469 24.992C69.3989 24.544 69.0709 23.968 68.8629 23.264L70.2069 22.784C70.3829 23.792 70.7669 24.496 71.3589 24.896C71.9509 25.296 72.6309 25.496 73.3989 25.496C73.8469 25.496 74.2709 25.424 74.6709 25.28C75.0869 25.136 75.4229 24.912 75.6789 24.608C75.9349 24.288 76.0629 23.88 76.0629 23.384C76.0629 22.872 75.8869 22.432 75.5349 22.064C75.1829 21.696 74.5429 21.392 73.6149 21.152ZM93.1661 25.376V26H87.5021V25.376L88.8221 25.232C89.0781 25.2 89.2301 25.136 89.2781 25.04C89.3261 24.944 89.3501 24.616 89.3501 24.056V18.08C89.3501 16.896 89.1581 16.064 88.7741 15.584C88.3901 15.088 87.8461 14.84 87.1421 14.84C86.5981 14.84 86.0061 15 85.3661 15.32C84.7261 15.64 84.1261 16.272 83.5661 17.216V24.056C83.5661 24.616 83.5901 24.944 83.6381 25.04C83.6861 25.136 83.8381 25.2 84.0941 25.232L85.4141 25.376V26H79.7501V25.376L81.0701 25.232C81.3261 25.2 81.4781 25.136 81.5261 25.04C81.5741 24.944 81.5981 24.616 81.5981 24.056V10.184C81.5981 9.624 81.5741 9.296 81.5261 9.2C81.4781 9.104 81.3261 9.04 81.0701 9.008L79.7501 8.888V8.24H83.5661V15.944C84.1261 15.224 84.7661 14.704 85.4861 14.384C86.2061 14.048 86.9181 13.88 87.6221 13.88C88.8061 13.88 89.7181 14.248 90.3581 14.984C90.9981 15.704 91.3181 16.728 91.3181 18.056V24.056C91.3181 24.616 91.3421 24.944 91.3901 25.04C91.4381 25.136 91.5901 25.2 91.8461 25.232L93.1661 25.376ZM99.6306 21.152L98.1666 20.792C96.1666 20.28 95.1666 19.128 95.1666 17.336C95.1666 16.744 95.3026 16.184 95.5746 15.656C95.8466 15.128 96.2786 14.704 96.8706 14.384C97.4786 14.048 98.2546 13.88 99.1986 13.88C100.255 13.88 101.103 14.056 101.743 14.408C102.383 14.76 102.831 15.216 103.087 15.776C103.343 16.336 103.423 16.944 103.327 17.6L101.455 17.936C101.647 16.896 101.535 16.088 101.119 15.512C100.719 14.936 100.055 14.648 99.1266 14.648C98.4066 14.648 97.8306 14.832 97.3986 15.2C96.9666 15.552 96.7506 16.072 96.7506 16.76C96.7506 17.272 96.9106 17.728 97.2306 18.128C97.5506 18.512 98.0866 18.8 98.8386 18.992L100.351 19.352C101.407 19.608 102.223 20.016 102.799 20.576C103.391 21.136 103.687 21.872 103.687 22.784C103.687 23.808 103.311 24.64 102.559 25.28C101.823 25.92 100.767 26.24 99.3906 26.24C98.7346 26.24 98.0946 26.144 97.4706 25.952C96.8626 25.744 96.3266 25.424 95.8626 24.992C95.4146 24.544 95.0866 23.968 94.8786 23.264L96.2226 22.784C96.3986 23.792 96.7826 24.496 97.3746 24.896C97.9666 25.296 98.6466 25.496 99.4146 25.496C99.8626 25.496 100.287 25.424 100.687 25.28C101.103 25.136 101.439 24.912 101.695 24.608C101.951 24.288 102.079 23.88 102.079 23.384C102.079 22.872 101.903 22.432 101.551 22.064C101.199 21.696 100.559 21.392 99.6306 21.152ZM115.822 26.168C114.574 26.168 113.838 25.592 113.614 24.44C113.054 25.08 112.438 25.544 111.766 25.832C111.094 26.104 110.43 26.24 109.774 26.24C108.654 26.24 107.83 25.928 107.302 25.304C106.774 24.68 106.51 23.928 106.51 23.048C106.51 22.104 106.83 21.36 107.47 20.816C108.126 20.256 109.254 19.976 110.854 19.976H113.566V18.032C113.566 16.752 113.342 15.872 112.894 15.392C112.462 14.896 111.87 14.648 111.118 14.648C110.638 14.648 110.206 14.744 109.822 14.936C109.438 15.128 109.158 15.48 108.982 15.992C108.822 16.488 108.806 17.216 108.934 18.176L107.038 17.888C106.958 17.136 107.054 16.464 107.326 15.872C107.614 15.264 108.078 14.784 108.718 14.432C109.374 14.064 110.19 13.88 111.166 13.88C112.334 13.88 113.23 14.08 113.854 14.48C114.478 14.864 114.91 15.368 115.15 15.992C115.406 16.616 115.534 17.296 115.534 18.032V23.432C115.534 24.248 115.622 24.76 115.798 24.968C115.99 25.176 116.198 25.28 116.422 25.28C116.566 25.28 116.718 25.248 116.878 25.184C117.038 25.104 117.214 24.984 117.406 24.824L117.838 25.424C117.598 25.632 117.31 25.808 116.974 25.952C116.654 26.096 116.27 26.168 115.822 26.168ZM110.446 25.232C110.894 25.232 111.374 25.112 111.886 24.872C112.414 24.616 112.974 24.112 113.566 23.36V20.744H111.118C110.222 20.744 109.566 20.928 109.15 21.296C108.75 21.648 108.55 22.2 108.55 22.952C108.55 23.672 108.702 24.232 109.006 24.632C109.326 25.032 109.806 25.232 110.446 25.232ZM130.079 27.392C130.079 28.672 129.607 29.648 128.663 30.32C127.735 31.008 126.439 31.352 124.775 31.352C122.951 31.352 121.615 31.032 120.767 30.392C119.919 29.768 119.479 28.976 119.447 28.016L121.223 27.656C121.159 28.536 121.391 29.24 121.919 29.768C122.463 30.312 123.415 30.584 124.775 30.584C125.991 30.584 126.967 30.36 127.703 29.912C128.455 29.464 128.831 28.808 128.831 27.944C128.831 27.304 128.615 26.824 128.183 26.504C127.751 26.184 127.039 26.024 126.047 26.024H123.191C122.119 26.024 121.367 25.8 120.935 25.352C120.503 24.888 120.287 24.376 120.287 23.816C120.287 23.352 120.399 22.92 120.623 22.52C120.863 22.104 121.239 21.696 121.751 21.296C121.111 20.992 120.591 20.552 120.191 19.976C119.791 19.384 119.591 18.672 119.591 17.84C119.591 16.96 119.791 16.232 120.191 15.656C120.607 15.064 121.151 14.624 121.823 14.336C122.511 14.032 123.271 13.88 124.103 13.88H124.511C125.391 13.88 126.175 14.04 126.863 14.36L130.343 13.16L130.607 14.96H127.799C128.167 15.28 128.455 15.68 128.663 16.16C128.887 16.64 128.999 17.2 128.999 17.84C128.999 18.688 128.791 19.408 128.375 20C127.975 20.592 127.439 21.04 126.767 21.344C126.095 21.632 125.343 21.776 124.511 21.776H124.103C123.831 21.776 123.567 21.76 123.311 21.728C123.055 21.696 122.807 21.648 122.567 21.584C122.215 21.824 121.959 22.072 121.799 22.328C121.655 22.584 121.583 22.848 121.583 23.12C121.583 23.44 121.695 23.696 121.919 23.888C122.159 24.08 122.535 24.176 123.047 24.176H126.167C127.431 24.176 128.399 24.448 129.071 24.992C129.743 25.536 130.079 26.336 130.079 27.392ZM124.511 21.008C124.943 21.008 125.335 20.912 125.687 20.72C126.055 20.528 126.351 20.208 126.575 19.76C126.799 19.296 126.911 18.656 126.911 17.84C126.911 17.008 126.799 16.368 126.575 15.92C126.351 15.456 126.055 15.128 125.687 14.936C125.335 14.744 124.943 14.648 124.511 14.648H124.103C123.671 14.648 123.271 14.744 122.903 14.936C122.535 15.128 122.239 15.456 122.015 15.92C121.791 16.368 121.679 17.008 121.679 17.84C121.679 18.656 121.791 19.296 122.015 19.76C122.239 20.208 122.535 20.528 122.903 20.72C123.271 20.912 123.671 21.008 124.103 21.008H124.511ZM142.08 23.264C141.792 24.352 141.248 25.12 140.448 25.568C139.664 26.016 138.792 26.24 137.832 26.24C136.056 26.24 134.728 25.704 133.848 24.632C132.968 23.544 132.528 22.096 132.528 20.288V19.808C132.528 18.016 132.952 16.584 133.8 15.512C134.648 14.424 135.88 13.88 137.496 13.88C138.36 13.88 139.144 14.056 139.848 14.408C140.568 14.76 141.136 15.28 141.552 15.968C141.984 16.656 142.2 17.512 142.2 18.536C142.2 19.016 142.152 19.52 142.056 20.048H134.688V20.768C134.688 22.448 134.944 23.656 135.456 24.392C135.984 25.112 136.832 25.472 138 25.472C138.736 25.472 139.344 25.28 139.824 24.896C140.32 24.512 140.648 23.848 140.808 22.904L142.08 23.264ZM137.496 14.648C136.552 14.648 135.848 15.008 135.384 15.728C134.92 16.448 134.688 17.632 134.688 19.28H140.088V19.208C140.12 19 140.144 18.8 140.16 18.608C140.176 18.4 140.184 18.216 140.184 18.056C140.184 16.856 139.936 15.992 139.44 15.464C138.944 14.92 138.296 14.648 137.496 14.648Z" fill="black"/>
<rect width="35" height="35" rx="4" fill="#086A12"/>
<path d="M9.204 6.744V5.96H17.464C19.8533 5.96 21.6827 6.66 22.952 8.06C24.24 9.46 24.884 11.6347 24.884 14.584V16.348C24.884 19.2973 24.24 21.4813 22.952 22.9C21.6827 24.3 19.8533 25 17.464 25H9.204V24.216L10.744 24.02C11.0427 23.9827 11.22 23.908 11.276 23.796C11.332 23.6653 11.36 23.2827 11.36 22.648V8.312C11.36 7.67733 11.332 7.304 11.276 7.192C11.22 7.06133 11.0427 6.97733 10.744 6.94L9.204 6.744ZM17.324 6.94L14.72 6.94V24.02H17.324C18.276 24.02 19.0413 23.8613 19.62 23.544C20.1987 23.208 20.6187 22.592 20.88 21.696C21.16 20.7813 21.3 19.4653 21.3 17.748V13.184C21.3 11.4667 21.16 10.16 20.88 9.264C20.6187 8.368 20.1987 7.76133 19.62 7.444C19.0413 7.108 18.276 6.94 17.324 6.94Z" fill="white"/>
<path d="M19.777 24.897L17.914 24.465C16.708 24.177 15.808 23.664 15.214 22.926C14.638 22.17 14.35 21.279 14.35 20.253C14.35 19.497 14.512 18.804 14.836 18.174C15.178 17.526 15.709 17.013 16.429 16.635C17.149 16.239 18.085 16.041 19.237 16.041C20.479 16.041 21.487 16.239 22.261 16.635C23.035 17.031 23.584 17.553 23.908 18.201C24.232 18.849 24.331 19.542 24.205 20.28L21.235 20.82C21.487 19.596 21.415 18.651 21.019 17.985C20.641 17.319 20.002 16.986 19.102 16.986C18.472 16.986 17.95 17.175 17.536 17.553C17.122 17.913 16.915 18.435 16.915 19.119C16.915 19.749 17.095 20.307 17.455 20.793C17.815 21.261 18.346 21.576 19.048 21.738L20.911 22.17C22.243 22.476 23.206 22.962 23.8 23.628C24.394 24.276 24.691 25.086 24.691 26.058C24.691 27.264 24.241 28.272 23.341 29.082C22.459 29.874 21.136 30.27 19.372 30.27C18.76 30.27 18.085 30.18 17.347 30C16.627 29.802 15.961 29.451 15.349 28.947C14.755 28.443 14.323 27.723 14.053 26.787L15.808 26.085C15.934 27.273 16.339 28.11 17.023 28.596C17.725 29.082 18.508 29.325 19.372 29.325C20.182 29.325 20.839 29.145 21.343 28.785C21.865 28.407 22.126 27.867 22.126 27.165C22.126 26.679 21.955 26.238 21.613 25.842C21.289 25.428 20.677 25.113 19.777 24.897Z" fill="white"/>
</svg>
