<svg width="240" height="50" viewBox="0 0 240 50" fill="none" xmlns="http://www.w3.org/2000/svg">
<g clip-path="url(#clip0_16_30)">
<path d="M73.34 31.98L68.36 20.46H65.86L60.88 31.98H57.4L62.9 19.2C63.0467 18.88 63.2067 18.58 63.38 18.3C63.5667 18.02 63.7733 17.78 64 17.58C64.2267 17.38 64.4867 17.2267 64.78 17.12C65.0733 17 65.4067 16.94 65.78 16.94H68.48C68.84 16.94 69.16 17 69.44 17.12C69.7333 17.2267 69.9933 17.3867 70.22 17.6C70.46 17.8 70.6667 18.04 70.84 18.32C71.0133 18.6 71.1733 18.8933 71.32 19.2L76.82 31.98H73.34ZM97.6925 30.5C97.2258 30.9533 96.6858 31.3133 96.0725 31.58C95.4592 31.8467 94.7992 31.98 94.0925 31.98H83.1325V16.98H94.0925C94.7992 16.98 95.4592 17.1133 96.0725 17.38C96.6858 17.6467 97.2258 18.0133 97.6925 18.48C98.1592 18.9333 98.5192 19.4667 98.7725 20.08C99.0392 20.6933 99.1725 21.36 99.1725 22.08V26.9C99.1725 27.6067 99.0392 28.2667 98.7725 28.88C98.5192 29.4933 98.1592 30.0333 97.6925 30.5ZM85.9325 29.18H94.0925C94.7592 29.18 95.2992 28.96 95.7125 28.52C96.1525 28.08 96.3725 27.54 96.3725 26.9V22.08C96.3725 21.44 96.1525 20.9 95.7125 20.46C95.2992 20.0067 94.7592 19.78 94.0925 19.78H85.9325V29.18ZM117.181 31.98H114.241L110.661 21.24C110.568 20.96 110.475 20.7267 110.381 20.54C110.301 20.3533 110.195 20.2067 110.061 20.1C109.928 19.9933 109.755 19.9133 109.541 19.86C109.341 19.8067 109.075 19.7733 108.741 19.76V31.98H105.961V16.94H108.741C109.208 16.9533 109.661 17.0067 110.101 17.1C110.541 17.18 110.948 17.32 111.321 17.52C111.695 17.7067 112.021 17.96 112.301 18.28C112.595 18.6 112.821 19 112.981 19.48L115.681 27.6L118.381 19.54C118.541 19.0467 118.768 18.64 119.061 18.32C119.355 17.9867 119.688 17.72 120.061 17.52C120.435 17.32 120.835 17.18 121.261 17.1C121.701 17.0067 122.155 16.9533 122.621 16.94H125.441V31.98H122.621V19.76C122.301 19.7733 122.041 19.8067 121.841 19.86C121.641 19.9 121.475 19.98 121.341 20.1C121.208 20.2067 121.095 20.3533 121.001 20.54C120.921 20.7133 120.835 20.94 120.741 21.22L117.181 31.98ZM135.044 31.98H132.244V16.94H135.044V31.98ZM144.964 31.94H142.044V16.94H144.964C145.43 16.9533 145.864 16.9867 146.264 17.04C146.677 17.08 147.057 17.18 147.404 17.34C147.764 17.5 148.097 17.74 148.404 18.06C148.71 18.3667 149.004 18.78 149.284 19.3L149.324 19.32C149.99 20.8533 150.644 22.3733 151.284 23.88C151.924 25.3733 152.57 26.8867 153.224 28.42C153.384 28.6867 153.584 28.88 153.824 29C154.077 29.1067 154.37 29.1667 154.704 29.18V16.94H157.584V31.94H155.644C155.03 31.94 154.484 31.9267 154.004 31.9C153.524 31.8733 153.084 31.7867 152.684 31.64C152.297 31.4933 151.937 31.2667 151.604 30.96C151.284 30.64 150.964 30.1933 150.644 29.62C149.977 28.1133 149.317 26.6067 148.664 25.1C148.024 23.5933 147.37 22.0733 146.704 20.54C146.517 20.22 146.277 20.0133 145.984 19.92C145.704 19.8267 145.364 19.7733 144.964 19.76V31.94ZM167.242 31.98H164.442V16.94H167.242V31.98ZM182.421 26.28H179.661L177.201 32H173.861L176.881 25.06C176.961 24.8867 177.015 24.7667 177.041 24.7C177.081 24.62 177.101 24.56 177.101 24.52C177.101 24.4667 177.081 24.4067 177.041 24.34C177.015 24.2733 176.961 24.1533 176.881 23.98L173.861 17H177.201L179.661 22.72H182.421L184.921 17H188.181L185.161 23.98C185.081 24.1533 185.021 24.2733 184.981 24.34C184.941 24.4067 184.921 24.4667 184.921 24.52C184.921 24.56 184.941 24.62 184.981 24.7C185.021 24.7667 185.081 24.8867 185.161 25.06L188.141 32H184.921L182.421 26.28ZM197.702 31.92C197.316 31.92 196.949 31.8467 196.602 31.7C196.269 31.5533 195.969 31.3533 195.702 31.1C195.449 30.8333 195.249 30.5333 195.102 30.2C194.956 29.8533 194.882 29.4867 194.882 29.1V19.76C194.882 19.3733 194.956 19.0067 195.102 18.66C195.249 18.3133 195.449 18.0133 195.702 17.76C195.969 17.4933 196.269 17.2867 196.602 17.14C196.949 16.9933 197.316 16.92 197.702 16.92H208.162C208.536 16.92 208.889 16.9933 209.222 17.14C209.569 17.2867 209.869 17.4933 210.122 17.76C210.376 18.0133 210.576 18.3133 210.722 18.66C210.869 19.0067 210.942 19.3733 210.942 19.76V29.1C210.942 29.4867 210.869 29.8533 210.722 30.2C210.576 30.5333 210.376 30.8333 210.122 31.1C209.869 31.3533 209.569 31.5533 209.222 31.7C208.889 31.8467 208.536 31.92 208.162 31.92H197.702ZM197.682 29.1C197.682 29.1133 197.689 29.12 197.702 29.12H208.162V29.1V19.76V19.7H197.702L197.682 19.76V29.1ZM230.488 31.94L227.408 27.38H220.648V31.98H217.828V24.62H230.168C230.434 24.62 230.654 24.5267 230.828 24.34C231.001 24.14 231.088 23.9067 231.088 23.64V20.64C231.088 20.3733 231.001 20.1533 230.828 19.98C230.654 19.7933 230.434 19.7 230.168 19.7H217.828V18.86C217.828 18.5933 217.881 18.3467 217.988 18.12C218.094 17.88 218.234 17.6733 218.408 17.5C218.794 17.1133 219.254 16.92 219.788 16.92H230.168C230.674 16.92 231.154 17.02 231.608 17.22C232.061 17.4067 232.454 17.6667 232.788 18C233.134 18.3333 233.408 18.7267 233.608 19.18C233.808 19.6333 233.908 20.12 233.908 20.64V23.64C233.908 24.12 233.828 24.5733 233.668 25C233.508 25.4133 233.281 25.7867 232.988 26.12C232.708 26.44 232.374 26.7133 231.988 26.94C231.601 27.1533 231.181 27.2867 230.728 27.34L233.828 31.94H230.488Z" fill="#1A4200"/>
<rect x="31.01" width="35" height="35" rx="5" transform="rotate(48 31.01 0)" fill="#1A4200"/>
<path d="M35.6938 31.98L30.7138 20.46H28.2138L23.2338 31.98H19.7538L25.2538 19.2C25.4004 18.88 25.5604 18.58 25.7338 18.3C25.9204 18.02 26.1271 17.78 26.3538 17.58C26.5804 17.38 26.8404 17.2267 27.1338 17.12C27.4271 17 27.7604 16.94 28.1338 16.94H30.8338C31.1938 16.94 31.5138 17 31.7938 17.12C32.0871 17.2267 32.3471 17.3867 32.5738 17.6C32.8138 17.8 33.0204 18.04 33.1938 18.32C33.3671 18.6 33.5271 18.8933 33.6738 19.2L39.1738 31.98H35.6938Z" fill="white"/>
</g>
<defs>
<clipPath id="clip0_16_30">
<rect width="240" height="49.4296" fill="white"/>
</clipPath>
</defs>
</svg>
