<svg width="20" height="21" viewBox="0 0 20 21" fill="none" xmlns="http://www.w3.org/2000/svg">
<g clip-path="url(#clip0_28074_2164)">
<path d="M10 20.4082C15.5228 20.4082 20 15.9311 20 10.4082C20 4.88536 15.5228 0.408203 10 0.408203C4.47715 0.408203 0 4.88536 0 10.4082C0 15.9311 4.47715 20.4082 10 20.4082Z" fill="#F0F0F0"/>
<path d="M9.56519 10.4083H20C20 9.50569 19.8796 8.63132 19.6555 7.79956H9.56519V10.4083Z" fill="#D80027"/>
<path d="M9.56519 5.19086H18.5322C17.9201 4.19196 17.1374 3.30903 16.2248 2.58215H9.56519V5.19086Z" fill="#D80027"/>
<path d="M9.99999 20.4083C12.3535 20.4083 14.5166 19.5948 16.2248 18.2344H3.77515C5.48335 19.5948 7.64651 20.4083 9.99999 20.4083Z" fill="#D80027"/>
<path d="M1.46772 15.6257H18.5323C19.0237 14.8238 19.4048 13.9472 19.6555 13.017H0.344482C0.595146 13.9472 0.976279 14.8238 1.46772 15.6257Z" fill="#D80027"/>
<path d="M4.63219 1.96984H5.54348L4.69582 2.58566L5.01961 3.58211L4.17199 2.96629L3.32437 3.58211L3.60406 2.72129C2.85773 3.34297 2.20359 4.07133 1.66453 4.88289H1.95652L1.41695 5.27488C1.33289 5.41512 1.25227 5.55758 1.175 5.70215L1.43266 6.49516L0.951953 6.1459C0.832461 6.39906 0.723164 6.65793 0.624922 6.92219L0.908789 7.79594H1.95652L1.10887 8.41176L1.43266 9.4082L0.585039 8.79238L0.0773047 9.16129C0.0264844 9.5698 0 9.9859 0 10.4082H10C10 4.88539 10 4.2343 10 0.408203C8.02453 0.408203 6.18301 0.98125 4.63219 1.96984ZM5.01961 9.4082L4.17199 8.79238L3.32437 9.4082L3.64816 8.41176L2.80051 7.79594H3.84824L4.17199 6.79949L4.49574 7.79594H5.54348L4.69582 8.41176L5.01961 9.4082ZM4.69582 5.49871L5.01961 6.49516L4.17199 5.87934L3.32437 6.49516L3.64816 5.49871L2.80051 4.88289H3.84824L4.17199 3.88645L4.49574 4.88289H5.54348L4.69582 5.49871ZM8.60656 9.4082L7.75895 8.79238L6.91133 9.4082L7.23512 8.41176L6.38746 7.79594H7.4352L7.75895 6.79949L8.0827 7.79594H9.13043L8.28277 8.41176L8.60656 9.4082ZM8.28277 5.49871L8.60656 6.49516L7.75895 5.87934L6.91133 6.49516L7.23512 5.49871L6.38746 4.88289H7.4352L7.75895 3.88645L8.0827 4.88289H9.13043L8.28277 5.49871ZM8.28277 2.58566L8.60656 3.58211L7.75895 2.96629L6.91133 3.58211L7.23512 2.58566L6.38746 1.96984H7.4352L7.75895 0.973398L8.0827 1.96984H9.13043L8.28277 2.58566Z" fill="#0052B4"/>
</g>
<defs>
<clipPath id="clip0_28074_2164">
<rect width="20" height="20" fill="white" transform="translate(0 0.408203)"/>
</clipPath>
</defs>
</svg>
