<svg width="20" height="21" viewBox="0 0 20 21" fill="none" xmlns="http://www.w3.org/2000/svg">
<g clip-path="url(#clip0_28074_1880)">
<path d="M10 20.4082C15.5228 20.4082 20 15.9311 20 10.4082C20 4.88536 15.5228 0.408203 10 0.408203C4.47715 0.408203 0 4.88536 0 10.4082C0 15.9311 4.47715 20.4082 10 20.4082Z" fill="#F0F0F0"/>
<path d="M5.6521 13.8865L6.52167 19.7863C7.60495 20.1883 8.77671 20.4082 9.99991 20.4082C14.2995 20.4082 17.965 17.6945 19.3779 13.8865H5.6521Z" fill="black"/>
<path d="M5.6521 6.92996L6.52167 1.03012C7.60495 0.628125 8.77671 0.408203 9.99991 0.408203C14.2995 0.408203 17.965 3.12195 19.3779 6.92996H5.6521Z" fill="#6DA544"/>
<path d="M0 10.4082C0 14.7078 2.71379 18.3732 6.52176 19.7862V1.03015C2.71379 2.44308 0 6.10851 0 10.4082Z" fill="#A2001D"/>
</g>
<defs>
<clipPath id="clip0_28074_1880">
<rect width="20" height="20" fill="white" transform="translate(0 0.408203)"/>
</clipPath>
</defs>
</svg>
