<svg width="20" height="21" viewBox="0 0 20 21" fill="none" xmlns="http://www.w3.org/2000/svg">
<g clip-path="url(#clip0_28074_2129)">
<path d="M0.62207 13.8865C2.035 17.6945 5.70043 20.4083 10.0001 20.4083C14.2997 20.4083 17.9652 17.6945 19.3781 13.8865L10.0001 13.017L0.62207 13.8865Z" fill="#FFDA44"/>
<path d="M10.0001 0.408203C5.70043 0.408203 2.035 3.12195 0.62207 6.92996L10.0001 7.79949L19.3781 6.92992C17.9652 3.12195 14.2997 0.408203 10.0001 0.408203Z" fill="black"/>
<path d="M0.621992 6.92993C0.220039 8.01325 0 9.18497 0 10.4082C0 11.6314 0.220039 12.8031 0.621992 13.8864H19.378C19.78 12.8031 20 11.6314 20 10.4082C20 9.18497 19.78 8.01325 19.378 6.92993H0.621992Z" fill="#D80027"/>
</g>
<defs>
<clipPath id="clip0_28074_2129">
<rect width="20" height="20" fill="white" transform="translate(0 0.408203)"/>
</clipPath>
</defs>
</svg>
