<svg width="20" height="21" viewBox="0 0 20 21" fill="none" xmlns="http://www.w3.org/2000/svg">
<g clip-path="url(#clip0_28074_562)">
<path d="M10 20.4082C15.5228 20.4082 20 15.9311 20 10.4082C20 4.88536 15.5228 0.408203 10 0.408203C4.47715 0.408203 0 4.88536 0 10.4082C0 15.9311 4.47715 20.4082 10 20.4082Z" fill="#F0F0F0"/>
<path d="M19.378 13.8864C19.78 12.8031 20 11.6314 20 10.4082C20 9.18497 19.78 8.01325 19.378 6.92993H0.621992C0.220039 8.01325 0 9.18497 0 10.4082C0 11.6314 0.220039 12.8031 0.621992 13.8864L10 14.756L19.378 13.8864Z" fill="#0052B4"/>
<path d="M10.0001 20.4082C14.2997 20.4082 17.9652 17.6945 19.3781 13.8865H0.62207C2.035 17.6945 5.70043 20.4082 10.0001 20.4082Z" fill="#D80027"/>
</g>
<defs>
<clipPath id="clip0_28074_562">
<rect width="20" height="20" fill="white" transform="translate(0 0.408203)"/>
</clipPath>
</defs>
</svg>
