<svg width="20" height="21" viewBox="0 0 20 21" fill="none" xmlns="http://www.w3.org/2000/svg">
<g clip-path="url(#clip0_28074_2110)">
<path d="M10 20.4082C15.5228 20.4082 20 15.9311 20 10.4082C20 4.88536 15.5228 0.408203 10 0.408203C4.47715 0.408203 0 4.88536 0 10.4082C0 15.9311 4.47715 20.4082 10 20.4082Z" fill="#F0F0F0"/>
<path d="M20.0001 10.4082C20.0001 6.44364 17.6929 3.01801 14.3479 1.40051V19.4159C17.6929 17.7985 20.0001 14.3729 20.0001 10.4082Z" fill="#D80027"/>
<path d="M0 10.4082C0 14.3729 2.30723 17.7985 5.65219 19.416V1.40051C2.30723 3.01801 0 6.44364 0 10.4082Z" fill="#6DA544"/>
<path d="M7.39136 10.4083C7.39136 11.849 8.55933 13.017 10.0001 13.017C11.4408 13.017 12.6088 11.849 12.6088 10.4083V9.5387H7.39136V10.4083Z" fill="#6DA544"/>
<path d="M13.4783 8.66901H10.8696C10.8696 8.18877 10.4802 7.79944 10 7.79944C9.51977 7.79944 9.13044 8.18877 9.13044 8.66901H6.52173C6.52173 9.14928 6.94005 9.53858 7.42024 9.53858H7.3913C7.3913 10.0189 7.7806 10.4081 8.26087 10.4081C8.26087 10.8884 8.65017 11.2777 9.13044 11.2777H10.8696C11.3499 11.2777 11.7391 10.8884 11.7391 10.4081C12.2194 10.4081 12.6087 10.0189 12.6087 9.53858H12.5797C13.06 9.53858 13.4783 9.14928 13.4783 8.66901Z" fill="#FF9811"/>
</g>
<defs>
<clipPath id="clip0_28074_2110">
<rect width="20" height="20" fill="white" transform="translate(0 0.408203)"/>
</clipPath>
</defs>
</svg>
