<svg width="20" height="21" viewBox="0 0 20 21" fill="none" xmlns="http://www.w3.org/2000/svg">
<g clip-path="url(#clip0_28074_1035)">
<path d="M10 20.4082C15.5228 20.4082 20 15.9311 20 10.4082C20 4.88536 15.5228 0.408203 10 0.408203C4.47715 0.408203 0 4.88536 0 10.4082C0 15.9311 4.47715 20.4082 10 20.4082Z" fill="#F0F0F0"/>
<path d="M9.99992 0.408203C6.03531 0.408203 2.60969 2.71543 0.992188 6.06039H19.0076C17.3902 2.71543 13.9645 0.408203 9.99992 0.408203Z" fill="#338AF3"/>
<path d="M9.99992 20.4082C13.9645 20.4082 17.3902 18.1009 19.0077 14.756H0.992188C2.60969 18.1009 6.03531 20.4082 9.99992 20.4082Z" fill="#338AF3"/>
<path d="M12.989 10.4082L11.7677 10.9827L12.418 12.1654L11.0919 11.9117L10.9238 13.2514L10.0001 12.2661L9.07635 13.2514L8.90834 11.9117L7.58217 12.1654L8.23248 10.9826L7.01123 10.4082L8.23252 9.83369L7.58217 8.65096L8.9083 8.90463L9.07639 7.56494L10.0001 8.55025L10.9238 7.56494L11.0919 8.90463L12.4181 8.65096L11.7677 9.83373L12.989 10.4082Z" fill="#FFDA44"/>
</g>
<defs>
<clipPath id="clip0_28074_1035">
<rect width="20" height="20" fill="white" transform="translate(0 0.408203)"/>
</clipPath>
</defs>
</svg>
